REM DIRINDEX 1\2\6,1\2\7,1\2\8,1\3\9,1\3\10,1\3\11,1\4\12,1\4\13,1\4\14,1\5\15,1\5\16,1\5\17,1\5\18
REM DIRNAME cjc019,folder01,folder02,folder03,folder04,folder05,folder06,folder07,folder08,folder09,folder10,folder11,folder12,folder13,folder14,folder15,folder16,folder17
TITLE ""
FILE "2Q_t_0618-0635.mp3" MP3
  TRACK 01 AUDIO
    TITLE "13:cjc019_3295"
    INDEX 01 00:00:00
  TRACK 02 AUDIO
    TITLE "0:"
    INDEX 01 00:00:70
  TRACK 03 AUDIO
    TITLE "14:cjc019_3296"
    INDEX 01 00:01:52
  TRACK 04 AUDIO
    TITLE "0:"
    INDEX 01 00:02:71
  TRACK 05 AUDIO
    TITLE "13:cjc019_3297"
    INDEX 01 00:03:49
  TRACK 06 AUDIO
    TITLE "0:"
    INDEX 01 00:04:72
  TRACK 07 AUDIO
    TITLE "14:cjc019_3298"
    INDEX 01 00:05:59
  TRACK 08 AUDIO
    TITLE "0:"
    INDEX 01 00:08:15
  TRACK 09 AUDIO
    TITLE "13:cjc019_3299"
    INDEX 01 00:08:70
  TRACK 10 AUDIO
    TITLE "0:"
    INDEX 01 00:10:18
  TRACK 11 AUDIO
    TITLE "14:cjc019_3300"
    INDEX 01 00:11:03
  TRACK 12 AUDIO
    TITLE "0:"
    INDEX 01 00:16:14
  TRACK 13 AUDIO
    TITLE "13:cjc019_3301"
    INDEX 01 00:16:67
  TRACK 14 AUDIO
    TITLE "0:"
    INDEX 01 00:18:19
  TRACK 15 AUDIO
    TITLE "14:cjc019_3302"
    INDEX 01 00:19:05
  TRACK 16 AUDIO
    TITLE "0:"
    INDEX 01 00:21:43
  TRACK 17 AUDIO
    TITLE "13:cjc019_3303"
    INDEX 01 00:22:21
  TRACK 18 AUDIO
    TITLE "0:"
    INDEX 01 00:23:34
  TRACK 19 AUDIO
    TITLE "14:cjc019_3304"
    INDEX 01 00:24:16
  TRACK 20 AUDIO
    TITLE "0:"
    INDEX 01 00:27:61
  TRACK 21 AUDIO
    TITLE "13:cjc019_3305"
    INDEX 01 00:28:45
  TRACK 22 AUDIO
    TITLE "0:"
    INDEX 01 00:29:54
  TRACK 23 AUDIO
    TITLE "14:cjc019_3306"
    INDEX 01 00:30:34
  TRACK 24 AUDIO
    TITLE "0:"
    INDEX 01 00:33:07
  TRACK 25 AUDIO
    TITLE "13:cjc019_3307"
    INDEX 01 00:33:62
  TRACK 26 AUDIO
    TITLE "0:"
    INDEX 01 00:35:10
  TRACK 27 AUDIO
    TITLE "14:cjc019_3308"
    INDEX 01 00:35:70
  TRACK 28 AUDIO
    TITLE "0:"
    INDEX 01 00:38:55
  TRACK 29 AUDIO
    TITLE "13:cjc019_3309"
    INDEX 01 00:39:21
  TRACK 30 AUDIO
    TITLE "0:"
    INDEX 01 00:40:26
  TRACK 31 AUDIO
    TITLE "14:cjc019_3310"
    INDEX 01 00:41:04
  TRACK 32 AUDIO
    TITLE "0:"
    INDEX 01 00:43:42
  TRACK 33 AUDIO
    TITLE "13:cjc019_3311"
    INDEX 01 00:44:14
  TRACK 34 AUDIO
    TITLE "0:"
    INDEX 01 00:45:28
  TRACK 35 AUDIO
    TITLE "14:cjc019_3312"
    INDEX 01 00:46:02
  TRACK 36 AUDIO
    TITLE "0:"
    INDEX 01 00:49:41
  TRACK 37 AUDIO
    TITLE "13:cjc019_3313"
    INDEX 01 00:50:21
  TRACK 38 AUDIO
    TITLE "0:"
    INDEX 01 00:51:36
  TRACK 39 AUDIO
    TITLE "14:cjc019_3314"
    INDEX 01 00:52:20
  TRACK 40 AUDIO
    TITLE "0:"
    INDEX 01 00:55:38
  TRACK 41 AUDIO
    TITLE "13:cjc019_3315"
    INDEX 01 00:56:20
  TRACK 42 AUDIO
    TITLE "0:"
    INDEX 01 00:57:41
  TRACK 43 AUDIO
    TITLE "14:cjc019_3316"
    INDEX 01 00:58:22
  TRACK 44 AUDIO
    TITLE "0:"
    INDEX 01 01:01:19
  TRACK 45 AUDIO
    TITLE "13:cjc019_3317"
    INDEX 01 01:02:01
  TRACK 46 AUDIO
    TITLE "0:"
    INDEX 01 01:03:18
  TRACK 47 AUDIO
    TITLE "14:cjc019_3318"
    INDEX 01 01:04:03
  TRACK 48 AUDIO
    TITLE "0:"
    INDEX 01 01:06:36
  TRACK 49 AUDIO
    TITLE "13:cjc019_3319"
    INDEX 01 01:07:14
  TRACK 50 AUDIO
    TITLE "0:"
    INDEX 01 01:08:23
  TRACK 51 AUDIO
    TITLE "14:cjc019_3320"
    INDEX 01 01:08:72
  TRACK 52 AUDIO
    TITLE "0:"
    INDEX 01 01:15:23
  TRACK 53 AUDIO
    TITLE "13:cjc019_3321"
    INDEX 01 01:16:03
  TRACK 54 AUDIO
    TITLE "0:"
    INDEX 01 01:17:20
  TRACK 55 AUDIO
    TITLE "14:cjc019_3322"
    INDEX 01 01:18:02
  TRACK 56 AUDIO
    TITLE "0:"
    INDEX 01 01:20:42
  TRACK 57 AUDIO
    TITLE "13:cjc019_3323"
    INDEX 01 01:21:27
  TRACK 58 AUDIO
    TITLE "0:"
    INDEX 01 01:22:46
  TRACK 59 AUDIO
    TITLE "14:cjc019_3324"
    INDEX 01 01:23:30
  TRACK 60 AUDIO
    TITLE "0:"
    INDEX 01 01:29:31
  TRACK 61 AUDIO
    TITLE "13:cjc019_3325"
    INDEX 01 01:30:07
  TRACK 62 AUDIO
    TITLE "0:"
    INDEX 01 01:31:14
  TRACK 63 AUDIO
    TITLE "14:cjc019_3326"
    INDEX 01 01:31:73
  TRACK 64 AUDIO
    TITLE "0:"
    INDEX 01 01:33:17
  TRACK 65 AUDIO
    TITLE "13:cjc019_3327"
    INDEX 01 01:33:70
  TRACK 66 AUDIO
    TITLE "0:"
    INDEX 01 01:35:16
  TRACK 67 AUDIO
    TITLE "14:cjc019_3328"
    INDEX 01 01:36:00
  TRACK 68 AUDIO
    TITLE "0:"
    INDEX 01 01:38:45
  TRACK 69 AUDIO
    TITLE "13:cjc019_3329"
    INDEX 01 01:39:21
  TRACK 70 AUDIO
    TITLE "0:"
    INDEX 01 01:40:50
  TRACK 71 AUDIO
    TITLE "14:cjc019_3330"
    INDEX 01 01:41:32
  TRACK 72 AUDIO
    TITLE "0:"
    INDEX 01 01:42:47
